<svg width="96" height="96" xmlns="http://www.w3.org/2000/svg" xmlns:xlink="http://www.w3.org/1999/xlink" xml:space="preserve" overflow="hidden"><g transform="translate(-1520 -370)"><path d="M1597.69 433.144C1593.16 427.176 1586.96 419 1586.96 404.171 1586.96 397.213 1582.96 390.721 1577.06 388.048 1576.35 387.701 1575.61 387.416 1574.84 387.194 1574.92 386.787 1574.96 386.374 1574.96 385.96 1574.98 382.116 1571.87 378.988 1568.03 378.974 1564.18 378.959 1561.06 382.064 1561.04 385.908 1561.04 386.329 1561.08 386.751 1561.15 387.166 1560.41 387.384 1559.69 387.67 1559 388.019 1553.04 390.719 1549.04 397.213 1549.04 404.171 1549.04 419.003 1542.84 427.176 1538.31 433.144 1535.74 436.531 1533.71 439.206 1533.71 442.029 1533.71 449.846 1548.99 456.572 1567.36 456.982L1568.64 456.982C1587.01 456.572 1602.29 449.846 1602.29 442.029 1602.29 439.206 1600.26 436.531 1597.69 433.144ZM1568 381C1570.74 381.003 1572.96 383.222 1572.96 385.96 1572.96 386.207 1572.94 386.453 1572.9 386.697 1572.18 386.545 1571.39 386.404 1570.5 386.297 1568.42 386.046 1566.32 386.09 1564.26 386.428 1563.85 386.497 1563.46 386.572 1563.1 386.651 1563.06 386.422 1563.05 386.19 1563.04 385.958 1563.05 383.222 1565.26 381.005 1568 381ZM1539.9 434.353C1544.33 428.508 1551.04 419.676 1551.04 404.171 1550.97 398.075 1554.42 392.484 1559.89 389.805 1561.38 389.106 1562.96 388.634 1564.58 388.405 1565.65 388.228 1566.72 388.139 1567.8 388.14 1568.62 388.141 1569.45 388.189 1570.27 388.285 1572.31 388.467 1574.31 388.993 1576.18 389.84 1581.62 392.527 1585.04 398.101 1584.97 404.171 1584.97 419.676 1591.67 428.508 1596.1 434.353 1597.42 435.965 1598.59 437.691 1599.6 439.511 1599.61 439.538 1599.61 439.543 1599.59 439.521 1594.31 434.371 1580.8 431.15 1568 431.15 1555.2 431.15 1541.69 434.37 1536.42 439.52 1536.4 439.542 1536.39 439.538 1536.41 439.509 1537.41 437.69 1538.58 435.965 1539.9 434.353ZM1572.06 436.22C1572.69 438.471 1571.37 440.803 1569.12 441.429 1568.38 441.635 1567.6 441.635 1566.86 441.429 1565.43 441.042 1564.32 439.932 1563.94 438.511 1563.31 436.261 1564.63 433.928 1566.88 433.301 1567.62 433.094 1568.4 433.094 1569.14 433.3 1570.57 433.687 1571.68 434.798 1572.06 436.22ZM1568 454.993C1551.4 454.753 1538.62 449.314 1536.15 443.9 1536.65 439.217 1547.84 434.151 1563.33 433.283 1561.06 435.864 1561.32 439.791 1563.9 442.053 1566.48 444.316 1570.41 444.057 1572.67 441.476 1574.73 439.131 1574.73 435.627 1572.67 433.283 1588.16 434.151 1599.34 439.217 1599.85 443.9 1597.38 449.314 1584.6 454.753 1568 454.993Z"/></g></svg>