<svg width="32" height="31" xmlns="http://www.w3.org/2000/svg" xmlns:xlink="http://www.w3.org/1999/xlink" xml:space="preserve" overflow="hidden"><g transform="translate(-37 -432)"><g><g><path d="M24.0288 4.49956 5.62446 4.49956 5.62446 1.68734 2.81223 1.68734C1.57029 1.68873 0.56384 2.69518 0.562446 3.93712L0.562446 20.248C0.56384 21.49 1.57029 22.4964 2.81223 22.4978L21.3729 22.4978 21.3729 25.31 24.1852 25.31C25.4271 25.3086 26.4335 24.3022 26.4349 23.0603L26.4349 6.74935C26.3891 5.46486 25.3135 4.4591 24.0288 4.49956ZM2.24978 3.93712C2.24978 3.62648 2.5016 3.37467 2.81223 3.37467L3.93712 3.37467 3.93712 17.9983 2.81223 17.9983C2.62249 17.9982 2.43351 18.0221 2.24978 18.0694ZM2.24978 20.248C2.24978 19.9374 2.5016 19.6856 2.81223 19.6856L5.62446 19.6856 5.62446 6.1869 24.0288 6.1869C24.3797 6.15403 24.6951 6.40088 24.7476 6.74935L24.7476 20.8105 2.81223 20.8105C2.5016 20.8105 2.24978 20.5587 2.24978 20.248ZM24.7476 23.0603C24.7476 23.3709 24.4958 23.6227 24.1852 23.6227L23.0603 23.6227 23.0603 22.4978 24.7476 22.4978Z" fill="#EC834E" transform="matrix(1 0 0 1.01196 39.1649 433.553)"/><path d="M23.2009 7.73363 7.17118 7.73363 7.17118 19.2638 23.2009 19.2638ZM12.574 18.4201C12.0854 17.93 11.8743 17.228 12.0116 16.5497 12.1716 15.8846 12.3102 15.5778 13.1407 14.9883 13.6098 14.6314 14.0568 14.2464 14.4793 13.8353 15.1249 13.2038 15.8201 12.6249 16.5581 12.1044 18.426 10.8715 21.8305 11.0262 22.3575 11.0585L22.3575 13.0375C21.2346 12.105 19.4345 11.772 17.6231 12.2557 16.1411 12.6516 14.9369 13.5212 14.3201 14.6402 13.8987 15.3556 13.7947 16.2144 14.0333 17.0098 14.2115 17.562 14.5444 18.0515 14.9925 18.4201ZM10.9016 8.57729 11.914 8.57729C11.6387 9.16786 11.3313 9.7185 10.8555 9.89032L8.01485 10.9162 8.01485 9.98341C8.09758 9.99378 8.18091 9.99904 8.26429 9.99916 8.88866 9.97556 9.49386 9.77685 10.0107 9.42574 10.3645 9.20929 10.6682 8.92008 10.9016 8.57729ZM8.01485 11.8133 11.1412 10.6839C12.0391 10.3594 12.4593 9.4249 12.8285 8.60064L12.8392 8.57729 13.9205 8.57729C13.8755 8.6836 13.8308 8.79102 13.7853 8.90014 13.3657 9.91085 12.8901 11.0563 12.0763 11.3749 10.5051 11.9888 8.87708 12.8004 8.01485 13.2456ZM12.3836 12.1604C13.5319 11.7104 14.0803 10.3887 14.5645 9.22383 14.6573 8.99885 14.7482 8.78315 14.8407 8.57701L17.0623 8.57701C16.366 8.83489 15.8101 9.18445 15.5601 9.66056 15.0609 10.6111 13.515 12.1199 12.3687 12.9722 11.7995 13.3955 11.4514 13.6171 11.115 13.8317 10.8001 14.0322 10.5025 14.2217 10.0776 14.5454 9.03085 15.4378 8.30783 16.6507 8.02075 17.996 8.02075 17.9974 8.01963 17.9985 8.01822 17.9985 8.01682 17.9985 8.01569 17.9974 8.01569 17.996L8.01569 14.1995C9.43528 13.4444 10.8932 12.7637 12.3836 12.1604ZM10.588 15.2167C10.9848 14.9146 11.2548 14.7425 11.5675 14.5434 11.9002 14.3314 12.2776 14.0909 12.8713 13.6497 13.925 12.8659 15.6874 11.2312 16.3061 10.0529 16.8213 9.07196 20.2101 8.71284 22.3572 8.70806L22.3572 10.2126C21.6117 10.1685 18.1465 10.0439 16.0933 11.3999 15.3159 11.9456 14.5841 12.5534 13.9051 13.2175 13.509 13.6029 13.0907 13.9648 12.6522 14.3013 11.6474 15.0142 11.3985 15.4903 11.1899 16.3542 11.0237 17.0607 11.1462 17.8042 11.5301 18.4201L8.79524 18.4201C9.00771 17.1783 9.64068 16.0472 10.588 15.2167ZM14.8387 16.7586C14.671 16.1823 14.7507 15.5622 15.0586 15.0471 15.5578 14.1416 16.5978 13.4028 17.8405 13.071 19.7295 12.5664 21.6457 13.1008 22.3572 14.3126L22.3572 16.3913C21.876 17.3135 20.8321 18.0787 19.5579 18.4201L17.354 18.4201C17.1282 18.4201 16.9027 18.4046 16.679 18.3737L16.5741 18.3591C15.6779 18.0424 15.0617 17.4741 14.8387 16.7586ZM9.75281 8.57729C9.69302 8.62375 9.63087 8.66712 9.56664 8.70722 8.74912 9.21342 8.22295 9.1763 8.01485 9.12905L8.01485 8.57729ZM21.5793 18.4201C21.8586 18.2344 22.1191 18.0219 22.3572 17.7857L22.3572 18.4201Z" fill="#EC834E" transform="matrix(1 0 0 1.01196 39.1649 433.553)"/><path d="M19.2978 17.9257C20.1115 17.7358 20.8142 17.2257 21.2469 16.5109 21.5036 16.0668 21.5666 15.5367 21.421 15.0449 21.0532 13.866 19.5545 13.2658 18.0092 13.6787 17.1955 13.8685 16.4928 14.3785 16.0601 15.0932 15.8033 15.5373 15.7403 16.0674 15.886 16.5592 16.1754 17.4873 17.1639 18.0559 18.325 18.0559 18.6536 18.055 18.9806 18.0112 19.2978 17.9257ZM16.6914 16.3081C16.615 16.0355 16.6539 15.7436 16.7988 15.5004 17.1235 14.9897 17.6367 14.6278 18.2269 14.4937 18.4664 14.4294 18.7132 14.3967 18.9612 14.3964 19.7559 14.3964 20.4426 14.7417 20.6156 15.2963 20.692 15.5688 20.6531 15.8607 20.5079 16.1037 20.1834 16.6144 19.6702 16.9764 19.0801 17.1107 18.0106 17.3967 16.9161 17.0289 16.6914 16.3081Z" fill="#EC834E" transform="matrix(1 0 0 1.01196 39.1649 433.553)"/><path d="M20.0793 16.1762C20.2137 15.9405 20.2401 15.6583 20.1516 15.4017 19.9412 14.8061 19.1313 14.4917 18.307 14.6857 17.8589 14.7709 17.4671 15.0401 17.2269 15.4279 17.0927 15.6636 17.0664 15.9456 17.1546 16.2021 17.3233 16.6802 17.8751 16.9757 18.5112 16.9757 18.6756 16.9759 18.8394 16.957 18.9994 16.9195 19.4477 16.8343 19.8396 16.5646 20.0793 16.1762ZM19.3388 15.7721C19.2106 15.9467 19.0185 16.0636 18.8045 16.0972 18.3506 16.2043 17.9926 16.0443 17.9493 15.9211 17.9459 15.9119 17.937 15.8863 17.9668 15.832 18.0949 15.6573 18.287 15.5405 18.5011 15.5069 18.5982 15.4838 18.6977 15.472 18.7975 15.4718 19.1037 15.4718 19.3228 15.5882 19.3563 15.6829L19.3563 15.6829C19.3597 15.6922 19.3689 15.7178 19.3391 15.7721Z" fill="#EC834E" transform="matrix(1 0 0 1.01196 39.1649 433.553)"/></g></g></g></svg>