<svg width="29" height="29" xmlns="http://www.w3.org/2000/svg" xmlns:xlink="http://www.w3.org/1999/xlink" xml:space="preserve" overflow="hidden"><g transform="translate(-36 -209)"><path d="M44.7604 216.854C45.274 216.854 45.6667 216.461 45.6667 215.948L45.6667 214.135C45.6667 213.622 45.274 213.229 44.7604 213.229 44.2469 213.229 43.8542 213.622 43.8542 214.135L43.8542 215.948C43.8542 216.461 44.2469 216.854 44.7604 216.854Z" fill="#EC834E"/><path d="M42.0417 229.542 46.875 229.542 46.875 231.958 42.0417 231.958 42.0417 229.542ZM42.0417 225.917 46.875 225.917 46.875 228.333 42.0417 228.333 42.0417 225.917ZM42.0417 222.292 46.875 222.292 46.875 224.708 42.0417 224.708 42.0417 222.292ZM52.9167 222.292 52.9167 224.708 48.0833 224.708 48.0833 222.292 52.9167 222.292ZM58.9583 222.292 58.9583 224.708 54.125 224.708 54.125 222.292 58.9583 222.292ZM58.9583 228.333 54.125 228.333 54.125 225.917 58.9583 225.917 58.9583 228.333ZM58.9583 231.958 54.125 231.958 54.125 229.542 58.9583 229.542 58.9583 231.958ZM48.0833 228.333 48.0833 225.917 52.9167 225.917 52.9167 228.333 48.0833 228.333ZM48.0833 231.958 48.0833 229.542 52.9167 229.542 52.9167 231.958 48.0833 231.958ZM40.2292 233.771 60.7708 233.771 60.7708 220.479 40.2292 220.479 40.2292 233.771Z" fill="#EC834E"/><path d="M56.2396 216.854C56.7531 216.854 57.1458 216.461 57.1458 215.948L57.1458 214.135C57.1458 213.622 56.7531 213.229 56.2396 213.229 55.726 213.229 55.3333 213.622 55.3333 214.135L55.3333 215.948C55.3333 216.461 55.726 216.854 56.2396 216.854Z" fill="#EC834E"/><path d="M58.3542 215.042 58.3542 215.948C58.3542 217.126 57.4177 218.062 56.2396 218.062 55.0615 218.062 54.125 217.126 54.125 215.948L54.125 215.042 46.875 215.042 46.875 215.948C46.875 217.126 45.9385 218.062 44.7604 218.062 43.5823 218.062 42.6458 217.126 42.6458 215.948L42.6458 215.042 40.2292 215.042 40.2292 219.271 60.7708 219.271 60.7708 215.042 58.3542 215.042Z" fill="#EC834E"/></g></svg>