<svg width="96" height="96" xmlns="http://www.w3.org/2000/svg" xmlns:xlink="http://www.w3.org/1999/xlink" xml:space="preserve" overflow="hidden"><g transform="translate(-1511 -132)"><path d="M1561.41 173 1569.57 181.16C1571.57 178.886 1572.78 176.021 1573 173Z"/><path d="M1558 172.41 1558 158.05C1550.29 158.58 1544.46 165.264 1544.99 172.977 1545.52 180.691 1552.21 186.514 1559.92 185.984 1562.97 185.775 1565.86 184.576 1568.16 182.57Z"/><path d="M1560 171 1573 171C1572.49 164.049 1566.95 158.529 1560 158.05Z"/><path d="M1587 154 1587 190 1531 190 1531 154ZM1595 192 1593 192 1593 151 1595 151C1596.1 151 1597 150.105 1597 149 1597 147.895 1596.1 147 1595 147L1561 147 1561 145C1561 143.895 1560.1 143 1559 143 1557.9 143 1557 143.895 1557 145L1557 147 1523 147C1521.9 147 1521 147.895 1521 149 1521 150.105 1521.9 151 1523 151L1525 151 1525 192 1523 192C1521.9 192 1521 192.895 1521 194 1521 195.105 1521.9 196 1523 196L1553.54 196 1538.14 211.4C1537.36 212.19 1537.37 213.464 1538.16 214.245 1538.94 215.026 1540.22 215.02 1541 214.23L1557 198.23 1557 216C1557 217.105 1557.9 218 1559 218 1560.1 218 1561 217.105 1561 216L1561 198.2 1577 214.2C1577.78 214.982 1579.05 214.982 1579.83 214.2 1580.61 213.419 1580.61 212.151 1579.83 211.37L1564.46 196 1595 196C1596.1 196 1597 195.105 1597 194 1597 192.895 1596.1 192 1595 192Z"/></g></svg>