<svg width="27" height="27" xmlns="http://www.w3.org/2000/svg" xmlns:xlink="http://www.w3.org/1999/xlink" xml:space="preserve" overflow="hidden"><g transform="translate(-36 -402)"><path d="M56.5312 425.062 42.4688 425.062 42.4688 407.625 45.5625 407.625 45.5625 409.312 53.4375 409.312 53.4375 407.625 56.5312 407.625ZM49.5 405.375C49.966 405.375 50.3438 405.753 50.3438 406.219 50.3438 406.685 49.966 407.062 49.5 407.062 49.034 407.062 48.6562 406.685 48.6562 406.219 48.6486 405.76 49.0139 405.383 49.4722 405.375 49.4815 405.375 49.4907 405.375 49.5 405.375ZM57.0938 405.938 52.3125 405.938 52.3125 405.375C52.3125 404.754 51.8088 404.25 51.1875 404.25L47.8125 404.25C47.1912 404.25 46.6875 404.754 46.6875 405.375L46.6875 405.938 41.9062 405.938C41.2849 405.938 40.7812 406.441 40.7812 407.062L40.7812 425.625C40.7812 426.246 41.2849 426.75 41.9062 426.75L57.0938 426.75C57.7151 426.75 58.2188 426.246 58.2188 425.625L58.2188 407.062C58.2188 406.441 57.7151 405.938 57.0938 405.938Z" fill="#EC834E"/><path d="M50.0625 411.562 54.8438 411.562 54.8438 412.688 50.0625 412.688Z" fill="#EC834E"/><path d="M50.0625 414.938 54.8438 414.938 54.8438 416.062 50.0625 416.062Z" fill="#EC834E"/><path d="M50.0625 418.312 54.8438 418.312 54.8438 419.438 50.0625 419.438Z" fill="#EC834E"/><path d="M50.0625 421.688 54.8438 421.688 54.8438 422.812 50.0625 422.812Z" fill="#EC834E"/><path d="M44.3551 412.069 44.9437 411.48 45.675 412.211 47.5312 410.355 48.1199 410.944 45.675 413.389 44.3551 412.069Z" fill="#EC834E"/><path d="M44.3551 415.444 44.9437 414.855 45.675 415.586 47.5312 413.73 48.1199 414.319 45.675 416.764 44.3551 415.444Z" fill="#EC834E"/><path d="M44.3551 418.819 44.9437 418.23 45.675 418.961 47.5312 417.105 48.1199 417.694 45.675 420.139 44.3551 418.819Z" fill="#EC834E"/><path d="M44.3551 422.194 44.9437 421.605 45.675 422.336 47.5312 420.48 48.1199 421.069 45.675 423.514 44.3551 422.194Z" fill="#EC834E"/></g></svg>