<svg width="1381" height="983" xmlns="http://www.w3.org/2000/svg" xmlns:xlink="http://www.w3.org/1999/xlink" xml:space="preserve" overflow="hidden"><g transform="translate(-643 -644)"><path d="M1075.5 1271.5 1225.69 1357.38" stroke="#06B6D4" stroke-width="68.75" stroke-miterlimit="8" fill="none" fill-rule="evenodd"/><path d="M871.5 1517 668 1415.25 668 1125.75 871.5 1024 1075 1125.75 1075 1415.25Z" stroke="#06B6D4" stroke-width="50.4167" stroke-linecap="round" stroke-linejoin="round" stroke-miterlimit="10" fill="none" fill-rule="evenodd"/><path d="M1338.5 1137.5 1338.5 1278.95" stroke="#06B6D4" stroke-width="68.75" stroke-miterlimit="8" fill="none" fill-rule="evenodd"/><path d="M0 0 139.735 51.5625" stroke="#06B6D4" stroke-width="68.75" stroke-miterlimit="8" fill="none" fill-rule="evenodd" transform="matrix(-1 0 0 1 1592.23 1297.5)"/><path d="M1333.5 1627 1172 1546.25 1172 1317.75 1333.5 1237 1495 1317.75 1495 1546.25Z" fill="#06B6D4" fill-rule="evenodd"/><path d="M1333.5 1161 1130 1059.25 1130 770.75 1333.5 669 1537 770.75 1537 1059.25Z" stroke="#06B6D4" stroke-width="50.4167" stroke-linecap="round" stroke-linejoin="round" stroke-miterlimit="10" fill="none" fill-rule="evenodd"/><path d="M1795.5 1517 1592 1415.25 1592 1125.75 1795.5 1024 1999 1125.75 1999 1415.25Z" stroke="#06B6D4" stroke-width="50.4167" stroke-linecap="round" stroke-linejoin="round" stroke-miterlimit="10" fill="none" fill-rule="evenodd"/></g></svg>