<svg width="28" height="28" xmlns="http://www.w3.org/2000/svg" xmlns:xlink="http://www.w3.org/1999/xlink" xml:space="preserve" overflow="hidden"><g transform="translate(-37 -285)"><path d="M51 297.833C49.5417 297.833 48.375 296.667 48.375 295.208 48.375 293.75 49.5417 292.583 51 292.583 52.4583 292.583 53.625 293.75 53.625 295.208 53.625 296.667 52.4583 297.833 51 297.833ZM51 289.083C48.9875 289.083 47.0917 290.075 45.9542 291.767 44.8167 293.429 44.5833 295.558 45.3125 297.454L48.0833 303.579 50.475 308.596C50.5625 308.8 50.7667 308.917 51 308.917 51.2333 308.917 51.4375 308.8 51.525 308.596L53.9167 303.579 56.6875 297.454C57.4167 295.558 57.1833 293.429 56.0458 291.767 54.9083 290.075 53.0125 289.083 51 289.083Z" fill="#EC834E"/></g></svg>