<svg width="38" height="38" xmlns="http://www.w3.org/2000/svg" xmlns:xlink="http://www.w3.org/1999/xlink" xml:space="preserve" overflow="hidden"><g transform="translate(-268 -617)"><path d="M300.458 642.333 273.542 642.333 273.542 624.917 300.458 624.917 300.458 642.333ZM301.25 622.542 272.75 622.542C271.879 622.542 271.167 623.254 271.167 624.125L271.167 643.125C271.167 643.996 271.879 644.708 272.75 644.708L283.833 644.708 283.833 647.083 279.875 647.083 279.875 649.458 294.125 649.458 294.125 647.083 290.167 647.083 290.167 644.708 301.25 644.708C302.121 644.708 302.833 643.996 302.833 643.125L302.833 624.125C302.833 623.254 302.121 622.542 301.25 622.542Z" fill="#FFFFFF"/></g></svg>