<svg width="96" height="96" xmlns="http://www.w3.org/2000/svg" xmlns:xlink="http://www.w3.org/1999/xlink" xml:space="preserve" overflow="hidden"><g transform="translate(-1038 -502)"><path d="M1085.6 510.414 1043.23 561.709 1042.67 562.389 1066.94 588.176 1128.66 577.639ZM1085.93 514.638 1125.34 576.162C1125.34 576.167 1125.34 576.173 1125.33 576.176 1125.33 576.177 1125.33 576.177 1125.33 576.178L1068.64 585.856C1068.64 585.857 1068.63 585.853 1068.63 585.848 1068.63 585.846 1068.63 585.845 1068.63 585.844L1085.91 514.641C1085.92 514.629 1085.93 514.627 1085.93 514.638ZM1083.49 516.138 1073.4 557.707 1070.49 558.096 1070.76 560.078 1072.9 559.793 1066.77 585.053C1066.76 585.063 1066.76 585.065 1066.75 585.057L1045.34 562.309 1045.34 562.296 1083.48 516.13C1083.49 516.111 1083.5 516.115 1083.49 516.138Z" stroke="#EC834E" fill="#EC834E"/><path d="M1116.75 572.119 1117.79 570.415 1119.5 571.461 1118.45 573.165Z" stroke="#EC834E" fill="#EC834E"/><path d="M1111.44 568.862 1112.48 567.157 1115.52 569.018 1114.47 570.724Z" stroke="#EC834E" fill="#EC834E"/><path d="M1095.51 559.088 1096.56 557.383 1099.59 559.244 1098.54 560.95Z" stroke="#EC834E" fill="#EC834E"/><path d="M1100.82 562.346 1101.87 560.641 1104.9 562.503 1103.85 564.208Z" stroke="#EC834E" fill="#EC834E"/><path d="M1106.13 565.604 1107.17 563.899 1110.21 565.76 1109.16 567.466Z" stroke="#EC834E" fill="#EC834E"/><path d="M1091.13 556.399 1093.23 557.692 1094.28 555.987 1092.98 555.186 1092.76 553.671 1090.78 553.954 1091.13 556.399Z" stroke="#EC834E" fill="#EC834E"/><path d="M1089.82 547.244 1091.8 546.96 1092.35 550.795 1090.37 551.079Z" stroke="#EC834E" fill="#EC834E"/><path d="M1088.86 540.533 1090.84 540.25 1091.39 544.084 1089.41 544.367Z" stroke="#EC834E" fill="#EC834E"/><path d="M1087.9 533.822 1089.88 533.539 1090.43 537.374 1088.45 537.657Z" stroke="#EC834E" fill="#EC834E"/><path d="M1086.94 527.111 1088.92 526.828 1089.47 530.663 1087.49 530.946Z" stroke="#EC834E" fill="#EC834E"/><path d="M1086.25 522.255 1088.23 521.972 1088.51 523.952 1086.53 524.235Z" stroke="#EC834E" fill="#EC834E"/><path d="M1056.62 559.945 1060.58 559.418 1060.84 561.4 1056.88 561.928Z" stroke="#EC834E" fill="#EC834E"/><path d="M1063.55 559.02 1067.52 558.492 1067.78 560.475 1063.82 561.002Z" stroke="#EC834E" fill="#EC834E"/><path d="M1049.68 560.87 1053.64 560.343 1053.91 562.325 1049.94 562.853Z" stroke="#EC834E" fill="#EC834E"/><path d="M1077.43 557.168 1081.4 556.639 1081.66 558.621 1077.7 559.15Z" stroke="#EC834E" fill="#EC834E"/><path d="M1084.37 556.244 1088.34 555.717 1088.6 557.7 1084.63 558.227Z" stroke="#EC834E" fill="#EC834E"/></g></svg>