<svg width="921" height="901" xmlns="http://www.w3.org/2000/svg" xmlns:xlink="http://www.w3.org/1999/xlink" xml:space="preserve" overflow="hidden"><defs><clipPath id="clip0"><rect x="3101" y="93" width="921" height="901"/></clipPath></defs><g clip-path="url(#clip0)" transform="translate(-3101 -93)"><path d="M3274.52 803.412 3631 99 3101 832 3274.52 803.412Z" fill="#06B6D4" fill-rule="evenodd"/><path d="M28.1395 276.476C18.8809 178.714 13.6863 97.7621 4.42772-0.000221227 4.30655 95.1222 0.121177 173.434 0 268.556L28.1395 276.476Z" fill="#06B6D4" fill-rule="evenodd" transform="matrix(0.764285 -0.644878 -0.644878 -0.764285 3991.62 990.438)"/><path d="M77.2717 621.288 290.504 0 0 646.971 77.2717 621.288Z" fill="#06B6D4" fill-rule="evenodd" transform="matrix(-0.296556 0.955015 0.955015 0.296556 3217.75 568.857)"/><path d="M3646.57 104.306 3646.57 104.306 3605.92 258.908 3752.25 437.562 3646.57 104.306Z" fill="#06B6D4" fill-rule="evenodd"/><path d="M3375.03 775.945 3630 103 3276 804 3375.03 775.945Z" fill="#06B6D4" fill-rule="evenodd"/><path d="M3642.6 93.3014 3642.6 93.3014 3609.05 249.371 3751.84 429.161 3642.6 93.3014Z" fill="#06B6D4" fill-rule="evenodd"/><path d="M3131 846 3131 846 3155.77 843.259 3827.34 772 4009 994 3131 846Z" fill="#06B6D4" fill-rule="evenodd"/><path d="M3823 597 3843.96 756.831 4022 994 3823 597Z" fill="#06B6D4" fill-rule="evenodd"/></g></svg>