<svg width="29" height="29" xmlns="http://www.w3.org/2000/svg" xmlns:xlink="http://www.w3.org/1999/xlink" xml:space="preserve" overflow="hidden"><g transform="translate(-36 -362)"><path d="M57.176 368.042 57.176 378.312 52.101 373.237 57.176 368.042ZM45.999 367.135 56.3604 367.135 51.2552 372.422 45.999 367.135ZM45.6969 383.508 44.6094 382.421 45.6969 380.065 46.7844 382.421 45.6969 383.508ZM46.5427 384.384 47.3281 383.599 48.7177 386.559 46.5427 384.384ZM42.676 386.529 44.0656 383.569 44.851 384.354 42.676 386.529ZM45.6969 385.2 47.5698 387.073 43.824 387.073 45.6969 385.2ZM59.925 381.092 58.3844 379.521 58.3844 367.74 58.6865 367.438C59.2 366.924 59.2 366.139 58.6865 365.625 58.1729 365.111 57.3875 365.111 56.874 365.625L56.5719 365.927 44.7906 365.927 43.5521 364.719C42.6156 366.41 42.0719 368.404 42.0719 370.489 42.0719 373.57 43.2198 376.349 45.0927 378.494L41.1354 387.013C41.0146 387.284 41.0146 387.617 41.1958 387.889 41.3771 388.16 41.649 388.311 41.951 388.311L49.4729 388.311C49.775 388.311 50.0771 388.16 50.2281 387.889 50.3792 387.617 50.4094 387.315 50.2885 387.013L47.1469 380.306C49.1406 381.696 51.5573 382.542 54.1552 382.542 56.2396 382.572 58.2031 381.998 59.925 381.092Z" fill="#EC834E"/></g></svg>