<svg width="39" height="38" xmlns="http://www.w3.org/2000/svg" xmlns:xlink="http://www.w3.org/1999/xlink" xml:space="preserve" overflow="hidden"><defs><clipPath id="clip0"><rect x="490" y="569" width="39" height="38"/></clipPath></defs><g clip-path="url(#clip0)" transform="translate(-490 -569)"><path d="M37.5684 31.1007 21.7573 3.71531C21.1818 2.71847 20.151 2.12342 19 2.12342 17.8489 2.12342 16.8181 2.71854 16.2426 3.71531L0.43163 31.1007C-0.143901 32.0976-0.143901 33.2878 0.43163 34.2846 1.00716 35.2815 2.038 35.8766 3.18899 35.8766L34.811 35.8766C35.9621 35.8766 36.9928 35.2815 37.5684 34.2846 38.1439 33.2878 38.1439 32.0976 37.5684 31.1007ZM36.6043 33.7281C36.23 34.3764 35.5596 34.7634 34.811 34.7634L3.18899 34.7634C2.44039 34.7634 1.77001 34.3764 1.39567 33.7281 1.02141 33.0798 1.02141 32.3057 1.39567 31.6574L17.2067 4.27192C17.581 3.62366 18.2514 3.23663 19 3.23663 19.7486 3.23663 20.419 3.62366 20.7934 4.27192L36.6043 31.6574 36.6043 31.6574C36.9786 32.3057 36.9786 33.0797 36.6043 33.7281Z" stroke="#747474" stroke-width="0.333313" fill="#AEAEAE" transform="matrix(1.02632 0 0 1 490 569)"/><path d="M21.8609 11.0337C21.7072 10.7674 21.3668 10.6762 21.1006 10.8299 20.8344 10.9836 20.7432 11.3241 20.8969 11.5903L32.2151 31.194 23.1646 31.194C22.8572 31.194 22.608 31.4432 22.608 31.7506 22.608 32.058 22.8572 32.3072 23.1646 32.3072L33.1791 32.3072C33.378 32.3072 33.5617 32.201 33.6611 32.0289 33.7606 31.8567 33.7606 31.6444 33.6611 31.4723L21.8609 11.0337Z" stroke="#747474" stroke-width="0.333313" fill="#AEAEAE" transform="matrix(1.02632 0 0 1 490 569)"/><path d="M14.8358 31.194 5.78493 31.194 19 8.30472 19.6453 9.42261C19.799 9.68882 20.1394 9.78003 20.4057 9.62633 20.6719 9.47263 20.7631 9.13221 20.6094 8.86601L19.482 6.91321C19.3825 6.74103 19.1989 6.6349 19 6.6349 18.8011 6.6349 18.6173 6.74103 18.5179 6.91321L4.33886 31.4723C4.23942 31.6444 4.23942 31.8567 4.33886 32.0289 4.43831 32.201 4.62199 32.3072 4.82088 32.3072L14.8358 32.3072C15.1432 32.3072 15.3924 32.058 15.3924 31.7506 15.3924 31.4432 15.1432 31.194 14.8358 31.194Z" stroke="#747474" stroke-width="0.333313" fill="#AEAEAE" transform="matrix(1.02632 0 0 1 490 569)"/><path d="M19 28.2195C17.709 28.2195 16.6587 29.2698 16.6587 30.5608 16.6587 31.8518 17.709 32.9021 19 32.9021 20.2911 32.9021 21.3413 31.8518 21.3413 30.5608 21.3413 29.2698 20.2911 28.2195 19 28.2195ZM19 31.7889C18.3228 31.7889 17.7719 31.238 17.7719 30.5608 17.7719 29.8836 18.3228 29.3327 19 29.3327 19.6772 29.3327 20.2281 29.8836 20.2281 30.5608 20.2281 31.238 19.6772 31.7889 19 31.7889Z" stroke="#747474" stroke-width="0.333313" fill="#AEAEAE" transform="matrix(1.02632 0 0 1 490 569)"/><path d="M17.8424 14.5365C17.5279 14.5365 17.2234 14.6673 17.007 14.8954 16.7906 15.1235 16.6759 15.4344 16.6924 15.7485L17.2247 25.862C17.2569 26.4737 17.762 26.953 18.3746 26.953L19.6254 26.953C20.2381 26.953 20.7432 26.4737 20.7754 25.862L21.3077 15.7485C21.3242 15.4345 21.2095 15.1235 20.9931 14.8954 20.7766 14.6673 20.4722 14.5365 20.1577 14.5365L17.8424 14.5365ZM20.1959 15.69 19.6637 25.8035C19.6626 25.8238 19.6458 25.8398 19.6254 25.8398L18.3746 25.8398C18.3542 25.8398 18.3374 25.8238 18.3363 25.8035L17.804 15.69C17.8038 15.6859 17.8031 15.6736 17.8145 15.6617 17.8258 15.6497 17.8382 15.6497 17.8423 15.6497L20.1576 15.6497C20.1617 15.6497 20.1741 15.6497 20.1855 15.6617 20.1968 15.6736 20.1961 15.6859 20.1959 15.69Z" stroke="#747474" stroke-width="0.333313" fill="#AEAEAE" transform="matrix(1.02632 0 0 1 490 569)"/></g></svg>